<?xml version="1.0" encoding="utf-8"?>
<!-- Generator: Adobe Illustrator 22.1.0, SVG Export Plug-In . SVG Version: 6.00 Build 0)  -->
<svg version="1.1" id="Слой_1" xmlns="http://www.w3.org/2000/svg" xmlns:xlink="http://www.w3.org/1999/xlink" x="0px" y="0px"
	 viewBox="0 0 163 35" style="enable-background:new 0 0 163 35;" xml:space="preserve">
<path id="_-e-logo" d="M-0.2,0.7v33.6h13.5c4.4,0.1,8.7-1.6,11.7-4.8c3.1-3.2,4.8-7.5,4.7-12c0.1-4.5-1.6-8.8-4.7-12
	C22,2.3,17.8,0.6,13.4,0.7H-0.2z M7.6,26.9V8.1h5.8c2.4-0.1,4.8,0.8,6.5,2.6c1.7,1.9,2.6,4.3,2.5,6.8c0.1,2.5-0.8,5-2.5,6.8
	c-1.7,1.7-4.1,2.7-6.5,2.6L7.6,26.9L7.6,26.9z M42.4,21h12.1v-7.3H42.4V8.1h13.3V0.7h-21v33.6h21.3v-7.4H42.4L42.4,21L42.4,21z
	 M78.7,34.3l11-33.6h-8.5l-7.5,24.7L66.3,0.7h-8.5l11,33.6C68.9,34.3,78.7,34.3,78.7,34.3z M93.1,34.3h7.7V0.7h-7.7
	C93.1,0.7,93.1,34.3,93.1,34.3z M131.7,32.9c2.5-1.3,4.6-3.3,6-5.7l-6.7-3.8c-0.7,1.3-1.8,2.4-3.2,3c-1.4,0.7-3,1.1-4.7,1.1
	c-2.7,0.1-5.3-0.9-7.2-2.7c-1.8-2-2.8-4.6-2.7-7.2c-0.1-2.7,0.8-5.3,2.7-7.2c1.9-1.9,4.5-2.9,7.2-2.7c1.6,0,3.2,0.3,4.6,1.1
	c1.3,0.7,2.5,1.7,3.2,3l6.7-3.8c-1.5-2.4-3.6-4.4-6.1-5.7c-2.6-1.4-5.5-2.1-8.4-2.1c-9.8-0.3-17.8,7.7-17.6,17.5
	c-0.2,9.8,7.8,17.7,17.6,17.5C126.2,35,129.1,34.3,131.7,32.9L131.7,32.9z M149.6,21h12.1v-7.3h-12.1V8.1h13.3V0.7h-21v33.6h21.3
	v-7.4h-13.5L149.6,21L149.6,21z"/>
</svg>
